<svg width="78" height="78" viewBox="0 0 78 78" fill="none" xmlns="http://www.w3.org/2000/svg">
<g clip-path="url(#clip0_602_2671)">
<g filter="url(#filter0_d_602_2671)">
<path d="M39 44C50.0457 44 59 35.0457 59 24C59 12.9543 50.0457 4 39 4C27.9543 4 19 12.9543 19 24C19 35.0457 27.9543 44 39 44Z" fill="black"/>
</g>
<path d="M39 44C50.0457 44 59 35.0457 59 24C59 12.9543 50.0457 4 39 4C27.9543 4 19 12.9543 19 24C19 35.0457 27.9543 44 39 44Z" fill="#F7941C"/>
<path fill-rule="evenodd" clip-rule="evenodd" d="M47.6727 19.3136C47.2877 18.9446 46.6635 18.9446 46.2784 19.3136L38.2234 26.6828L34.6831 23.5546C34.2981 23.1857 33.6739 23.1857 33.2888 23.5546C32.9037 23.9235 32.9037 24.5216 33.2888 24.8905L37.5262 28.6866C37.9111 29.0555 38.5358 29.0553 38.9205 28.6866L47.6727 20.6495C48.0578 20.2806 48.0577 19.6825 47.6727 19.3136Z" fill="white"/>
</g>
<defs>
<filter id="filter0_d_602_2671" x="-1" y="-1" width="80" height="80" filterUnits="userSpaceOnUse" color-interpolation-filters="sRGB">
<feFlood flood-opacity="0" result="BackgroundImageFix"/>
<feColorMatrix in="SourceAlpha" type="matrix" values="0 0 0 0 0 0 0 0 0 0 0 0 0 0 0 0 0 0 127 0" result="hardAlpha"/>
<feOffset dy="15"/>
<feGaussianBlur stdDeviation="10"/>
<feColorMatrix type="matrix" values="0 0 0 0 0.919909 0 0 0 0 0.86033 0 0 0 0 0.793305 0 0 0 1 0"/>
<feBlend mode="normal" in2="BackgroundImageFix" result="effect1_dropShadow_602_2671"/>
<feBlend mode="normal" in="SourceGraphic" in2="effect1_dropShadow_602_2671" result="shape"/>
</filter>
<clipPath id="clip0_602_2671">
<rect width="78" height="78" fill="white"/>
</clipPath>
</defs>
</svg>
